<?xml version="1.0" encoding="UTF-8"?><svg id="a" xmlns="http://www.w3.org/2000/svg" xmlns:xlink="http://www.w3.org/1999/xlink" viewBox="0 0 117.6 117.6"><defs><style>.d{fill:#737375;opacity:.51;}.e{fill:#eae8df;filter:url(#b);}</style><filter id="b" filterUnits="userSpaceOnUse"><feOffset dx="2.09" dy="2.09"/><feGaussianBlur result="c" stdDeviation="2.96"/><feFlood flood-color="#656572" flood-opacity=".23"/><feComposite in2="c" operator="in"/><feComposite in="SourceGraphic"/></filter></defs><circle class="d" cx="58.8" cy="58.8" r="58.8"/><path class="e" d="M94.48,54.46c-.5-.51-1.09-.91-1.6-1.42-5.35-5.36-10.7-10.71-16.06-16.07-2.24-2.24-4.47-4.5-6.73-6.72-3.18-3.14-8.08-2.34-9.87,1.6-1.04,2.27-.53,4.85,1.37,6.78,1.5,1.53,3.03,3.03,4.54,4.54,3.22,3.22,6.44,6.44,9.65,9.65H27.33c-3.3,0-5.98,2.68-5.98,5.98s2.68,5.98,5.98,5.98h48.38c-4.69,4.68-9.38,9.37-14.06,14.06-2.47,2.48-2.7,5.81-.6,8.37,.95,1.16,2.23,1.74,3.65,2.08h1.78c1.66-.34,2.92-1.29,4.1-2.47,7.45-7.49,14.93-14.95,22.41-22.42,.28-.28,.58-.54,.89-.78,2.89-2.26,3.17-6.53,.59-9.14Z"/></svg>