<?xml version="1.0" encoding="UTF-8"?><svg id="a" xmlns="http://www.w3.org/2000/svg" viewBox="0 0 99.91 136.5"><defs><style>.b{fill:none;stroke:#febe51;stroke-miterlimit:10;stroke-width:1.5px;}.c{fill:#febe51;}.d{fill:#ffd984;}</style></defs><rect class="c" x="41.18" y="51.28" width="48.26" height="5.69"/><rect class="d" y="15.92" width="99.91" height="120.57" rx="16.96" ry="16.96"/><path class="c" d="M77.7,12.81h-10.89c-1.27,0-2.32-1.05-2.49-2.44-.45-3.68-2.82-10.24-14.04-10.37-11.23,.12-13.6,6.68-14.04,10.37-.17,1.39-1.22,2.44-2.49,2.44h-10.89c-1.39,0-2.51,1.24-2.51,2.78v7.41c0,1.54,1.13,2.78,2.51,2.78h54.86c1.39,0,2.51-1.25,2.51-2.78v-7.41c0-1.54-1.13-2.78-2.51-2.78Zm-27.43,2.86c-1.39,0-2.51-1.24-2.51-2.78s1.13-2.78,2.51-2.78,2.51,1.24,2.51,2.78-1.13,2.78-2.51,2.78Z"/><rect class="b" x="73.47" y="40.25" width="15.72" height="14.11"/><rect class="b" x="73.47" y="58.68" width="15.72" height="14.11"/><rect class="b" x="73.47" y="77.1" width="15.72" height="14.11"/><rect class="b" x="73.47" y="95.53" width="15.72" height="14.11"/><rect class="b" x="73.47" y="113.96" width="15.72" height="14.11"/><rect class="c" x="15.04" y="30.95" width="75.48" height="5.69"/><rect class="c" x="15.23" y="44.55" width="51.34" height="5.89"/><rect class="c" x="15.23" y="62.88" width="51.34" height="5.89"/><rect class="c" x="15.23" y="81.21" width="51.34" height="5.89"/><rect class="c" x="15.23" y="99.54" width="51.34" height="5.89"/><rect class="c" x="15.23" y="117.88" width="51.34" height="5.89"/><path class="c" d="M94.53,39.17h0c-.39-.47-1.15-.52-1.61-.11l-10.67,9.47c-.47,.42-1.25,.36-1.63-.13l-2.84-3.58c-.38-.48-1.13-.55-1.61-.15l-.02,.02c-.4,.34-.46,.9-.14,1.3l4.95,6.25s.07-.08,.11-.13l.11,.13,13.25-11.76c.39-.35,.44-.91,.11-1.3Z"/><path class="c" d="M94.53,76.6h0c-.39-.47-1.15-.52-1.61-.11l-10.67,9.47c-.47,.42-1.25,.36-1.63-.13l-2.84-3.58c-.38-.48-1.13-.55-1.61-.15l-.02,.02c-.4,.34-.46,.9-.14,1.3l4.95,6.25s.07-.08,.11-.13l.11,.13,13.25-11.76c.39-.35,.44-.91,.11-1.3Z"/></svg>