<?xml version="1.0" encoding="UTF-8"?><svg id="a" xmlns="http://www.w3.org/2000/svg" viewBox="0 0 130.63 123.78"><defs><style>.b{stroke-width:7.7px;}.b,.c,.d,.e,.f,.g,.h{fill:#d57f71;stroke:#cb5a62;stroke-miterlimit:10;}.c{stroke-width:3.71px;}.i{fill:#cc5a62;}.d{stroke-width:4.84px;}.e{stroke-width:.93px;}.f{stroke-width:9.27px;}.g{stroke-width:8.01px;}.h{stroke-width:8.24px;}</style></defs><rect class="d" x="7.67" y="9.66" width="115.05" height="89.7"/><rect class="d" x="3.23" y="2.42" width="123.93" height="7.24" rx="1.04" ry="1.04"/><rect class="d" x="3.23" y="100.15" width="123.93" height="7.24" rx="1.04" ry="1.04"/><line class="h" x1="115.48" y1="70.17" x2="36.9" y2="70.17"/><path class="b" d="M63.43,24.27h52.04c-17.32-.32-34.79-.34-52.04-.11,0,.04,0,.08,0,.11Z"/><line class="c" x1="65.19" y1="109.85" x2="65.19" y2="117.78"/><ellipse class="e" cx="65.19" cy="119.58" rx="3.79" ry="3.74"/><g><path class="i" d="M37.39,38.44l14.96,11.03c1.47-1.93,2.83-4.39,3.53-7.44,1-4.37,.11-8.09-.19-9.23-.78-2.93-2.2-5.52-4.08-7.69-.91-1.05-1.92-2-3.03-2.84l-11.2,16.17Z"/><path class="i" d="M47.61,54.07c.94-.67,2.51-1.93,4.07-3.77l-15.02-11.07-.77-.5,.03-.05-.06-.04,.66-.83h0l11.19-16.15c-4.8-3.27-11.02-4.53-17.18-2.92-11.04,2.89-17.67,13.86-14.82,24.51,1.5,5.58,5.3,9.96,10.17,12.46,4.42,2.27,9.73,2.97,14.98,1.6,.86-.23,3.72-1.06,6.75-3.23Z"/></g><line class="f" x1="115.48" y1="85.7" x2="16.1" y2="85.7"/><path class="b" d="M68.99,39.45h45.94c-15.29-.28-30.69-.32-45.95-.17,0,.06,0,.11,.01,.17Z"/><path class="g" d="M65.2,54.64h49.73c-16.55-.28-33.22-.32-49.74-.17,0,.06,0,.11,.01,.17Z"/></svg>